<svg xmlns="http://www.w3.org/2000/svg"
     width="220"
     height="220"
     viewBox="0 0 220 220">

  <defs>
    <linearGradient id="heartGrad" x1="0" y1="0" x2="0" y2="1">
      <stop offset="0%" stop-color="#ff5a4f"/>
      <stop offset="100%" stop-color="#c62828"/>
    </linearGradient>

    <linearGradient id="roofGrad" x1="0" y1="0" x2="0" y2="1">
      <stop offset="0%" stop-color="#ffb74d"/>
      <stop offset="100%" stop-color="#f57c00"/>
    </linearGradient>
  </defs>

  <path
    d="M110 35
       C80 5, 20 30, 20 85
       C20 135, 110 175, 110 175
       C110 175, 200 135, 200 85
       C200 30, 140 5, 110 35 Z"
    fill="url(#heartGrad)"
  />

  <path
    d="M150 55
       C145 50, 135 52, 135 60
       C135 68, 150 74, 150 74
       C150 74, 165 68, 165 60
       C165 52, 155 50, 150 55 Z"
    fill="#ffd6d6"
    opacity="0.85"
  />

  <polygon
    points="110,70 65,105 70,105 110,78 150,105 155,105"
    fill="url(#roofGrad)"
  />

  <rect x="138" y="72" width="10" height="18" rx="2" fill="#ffcc80"/>

  <rect
    x="70"
    y="105"
    width="80"
    height="55"
    rx="10"
    fill="#ffffff"
  />

  <g fill="#f57c00">
    <rect x="90" y="118" width="12" height="12" rx="2"/>
    <rect x="108" y="118" width="12" height="12" rx="2"/>
    <rect x="90" y="136" width="12" height="12" rx="2"/>
    <rect x="108" y="136" width="12" height="12" rx="2"/>
  </g>

  <g fill="none" stroke-linecap="round">
    <path d="M50 155 Q110 185 170 155" stroke="#6d3b14" stroke-width="10"/>
    <path d="M55 162 Q110 192 165 162" stroke="#8b4a1d" stroke-width="10"/>
    <path d="M60 170 Q110 198 160 170" stroke="#a35d2a" stroke-width="10"/>
  </g>

</svg>
